<?xml version="1.0" standalone="no"?>
<!DOCTYPE svg PUBLIC "-//W3C//DTD SVG 20010904//EN"
 "http://www.w3.org/TR/2001/REC-SVG-20010904/DTD/svg10.dtd">
<svg version="1.0" xmlns="http://www.w3.org/2000/svg"
 width="460.000000pt" height="460.000000pt" viewBox="0 0 460.000000 460.000000"
 preserveAspectRatio="xMidYMid meet">
<metadata>
Created by potrace 1.14, written by Peter Selinger 2001-2017
</metadata>
<g transform="translate(0.000000,460.000000) scale(0.100000,-0.100000)"
fill="#000000" stroke="none">
<path d="M3808 4467 c-58 -52 -210 -174 -258 -207 -19 -13 -37 -27 -40 -30 -3
-3 -16 -11 -29 -18 -13 -8 -40 -23 -60 -35 -57 -32 -145 -77 -153 -77 -4 0
-31 -11 -60 -24 -117 -53 -364 -104 -538 -110 -95 -3 -452 19 -470 29 -16 10
-220 20 -375 19 -208 -1 -301 -15 -475 -74 -187 -63 -305 -124 -499 -259 -52
-37 -124 -97 -204 -171 -81 -75 -96 -85 -102 -68 -2 7 -13 44 -25 83 -26 88
-59 144 -105 179 -115 88 -212 73 -272 -43 -57 -109 -59 -101 153 -790 102
-333 189 -617 194 -631 5 -14 66 -212 135 -440 70 -228 131 -428 136 -445 6
-16 102 -327 213 -690 l203 -660 211 -3 c117 -1 212 0 212 3 0 3 -32 110 -71
238 -39 127 -98 318 -130 422 -32 105 -85 277 -117 383 l-60 193 25 29 c13 16
73 66 133 111 61 46 110 86 110 91 0 4 5 8 11 8 6 0 30 16 53 35 24 19 46 35
50 35 3 0 25 12 49 27 39 25 192 103 203 103 2 0 23 9 47 19 93 42 234 79 402
106 103 16 418 14 550 -3 209 -28 281 -35 420 -38 88 -1 190 3 246 10 87 12
262 57 299 77 8 4 33 15 55 24 123 51 325 164 492 276 73 50 211 174 202 183
-3 3 -23 8 -44 10 -113 15 -251 48 -376 92 -107 37 -279 108 -314 129 -11 7
-65 36 -120 65 -134 71 -134 71 -185 106 -25 17 -52 34 -60 37 -36 17 -260
177 -260 186 0 11 38 82 53 100 14 16 117 191 130 221 4 8 17 31 29 50 35 58
184 361 204 415 10 28 23 59 30 70 45 74 165 458 210 673 6 31 -4 28 -58 -21z"/>
</g>
</svg>
